<?xml version="1.0" encoding="UTF-8" standalone="no"?>
<!DOCTYPE svg PUBLIC "-//W3C//DTD SVG 1.1//EN" "http://www.w3.org/Graphics/SVG/1.1/DTD/svg11.dtd">
<svg width="100%" height="100%" viewBox="0 0 322 273" version="1.1" xmlns="http://www.w3.org/2000/svg" xmlns:xlink="http://www.w3.org/1999/xlink" xml:space="preserve" xmlns:serif="http://www.serif.com/" style="fill-rule:evenodd;clip-rule:evenodd;stroke-linejoin:round;stroke-miterlimit:2;">
    <g transform="matrix(1,0,0,1,-12.2056,-152.412)">
        <g transform="matrix(1.27609,0,0,0.863359,0,134.816)">
            <g transform="matrix(0.772839,-0.19169,0.129691,1.14229,-771.758,152.274)">
                <path d="M1029.98,146.307C1049.22,104.678 1089.83,77.33 1138.66,77.33C1205.63,77.33 1260,131.698 1260,198.665C1260,246.905 1230.9,287.47 1190.09,307.021L1029.98,146.307Z" style="fill:rgb(242,242,242);"/>
                <path d="M1029.98,146.307C1049.22,104.678 1089.83,77.33 1138.66,77.33C1205.63,77.33 1260,131.698 1260,198.665C1260,246.905 1230.9,287.47 1190.09,307.021L1029.98,146.307ZM1031.98,145.957C1031.98,145.957 1190.43,305.003 1190.43,305.003C1230.12,285.53 1258.33,245.821 1258.33,198.665C1258.33,132.618 1204.71,78.997 1138.66,78.997C1090.92,78.997 1051.15,105.499 1031.98,145.957Z" style="fill:white;"/>
            </g>
        </g>
        <g transform="matrix(1.27609,0,0,0.863359,0,134.816)">
            <g transform="matrix(0.772839,-0.19169,0.129691,1.14229,-771.758,152.274)">
                <path d="M1190.98,308.159C1175.13,315.749 1157.39,320 1138.66,320C1071.7,320 1017.33,265.632 1017.33,198.665C1017.33,181.712 1020.82,165.566 1027.11,150.905C1027.54,149.888 1027.99,148.877 1028.46,147.874L1190.98,308.159Z" style="fill:white;"/>
                <path d="M1190.98,308.159C1175.13,315.749 1157.39,320 1138.66,320C1071.7,320 1017.33,265.632 1017.33,198.665C1017.33,181.712 1020.82,165.566 1027.11,150.905C1027.54,149.888 1027.99,148.877 1028.46,147.874L1190.98,308.159ZM1188.1,307.663C1188.1,307.663 1046.22,167.736 1028.99,150.744C1028.87,151.016 1028.76,151.289 1028.64,151.562C1022.43,166.021 1019,181.945 1019,198.665C1019,264.712 1072.62,318.333 1138.66,318.333C1156.29,318.333 1173.03,314.516 1188.1,307.663Z" style="fill:white;"/>
            </g>
        </g>
        <g transform="matrix(1.27609,0,0,0.863359,0,134.816)">
            <g transform="matrix(0.783645,0,0,1.15827,-222.822,-0.813481)">
                <path d="M343,182C332.822,151.027 334.87,133.819 339.5,109.5L395,149L343,182Z" style="fill:rgb(255,130,7);"/>
            </g>
        </g>
        <g transform="matrix(1.27609,0,0,0.863359,0,134.816)">
            <g transform="matrix(0.783645,0,0,1.15827,-220.827,-1.20901)">
                <path d="M294,72L344.953,82.341C341.237,89.829 339.501,93.608 336.106,104.732L294,72Z" style="fill:rgb(252,192,0);"/>
            </g>
        </g>
        <g transform="matrix(1.27609,0,0,0.863359,0,134.816)">
            <g transform="matrix(0.777267,0.147476,-0.0997774,1.14884,-201.225,-76.3022)">
                <path d="M294,72L346.855,83.188C342.111,91.179 340.486,94.297 336.106,104.732L294,72Z" style="fill:rgb(252,192,0);"/>
            </g>
        </g>
        <g transform="matrix(1.27609,0,0,0.863359,0,134.816)">
            <g transform="matrix(0.783645,0,0,1.15827,-220.471,0.344786)">
                <path d="M338.195,104.315C344.486,86.196 349.27,75.32 361,61L388,62C394.402,63.777 408.5,68.857 408.5,68.857L428.5,96.5C428.5,96.5 402.085,140.103 395,145L338.195,104.315Z" style="fill:rgb(250,67,36);"/>
            </g>
        </g>
        <g transform="matrix(1.27609,0,0,0.863359,0,134.816)">
            <g transform="matrix(0.783645,0,0,1.15827,-220.471,1.46715)">
                <path d="M399,151.531L415.354,252.731C424.972,256.235 429.652,257.177 439,258.5L483,212L399,151.531Z" style="fill:rgb(251,191,95);"/>
            </g>
        </g>
        <g transform="matrix(1.27609,0,0,0.863359,0,134.816)">
            <g transform="matrix(0.783645,0,0,1.15827,-218.904,2.46728)">
                <path d="M440.905,258.741L484.496,213.168L589,288L440.905,258.741Z" style="fill:rgb(230,206,178);"/>
            </g>
        </g>
        <g transform="matrix(1.27609,0,0,0.863359,0,134.816)">
            <g transform="matrix(0.783645,0,0,1.15827,-219.296,-0.813481)">
                <path d="M407,155.415L484,210C493.972,192.765 503.314,173.853 507,155L407,155.415Z" style="fill:rgb(101,181,192);"/>
            </g>
        </g>
        <g transform="matrix(1.27609,0,0,0.863359,0,134.816)">
            <g transform="matrix(0.904206,0,0,1.15827,-278.04,0.344786)">
                <path d="M508.233,154L558.534,154L546,175L500.433,183C504.556,173.63 506.802,164.07 508.233,154Z" style="fill:rgb(213,182,128);"/>
            </g>
        </g>
        <g transform="matrix(1.27609,0,0,0.863359,0,134.816)">
            <g transform="matrix(0.783645,0,0,1.1424,-221.255,-1.26568)">
                <path d="M398,149L405.452,154L572,153.493L616,81L527,97L398,149Z" style="fill:rgb(109,172,161);"/>
            </g>
        </g>
        <g transform="matrix(1.27609,0,0,0.863359,0,134.816)">
            <g transform="matrix(0.783645,0,0,1.15827,-222.039,0.923919)">
                <path d="M396.496,150L344,184C360.442,222.023 387.583,240.634 413,252L396.496,150Z" style="fill:rgb(212,61,50);"/>
            </g>
        </g>
        <g transform="matrix(1.27609,0,0,0.863359,0,134.816)">
            <g transform="matrix(0.783645,0,0,1.15827,-220.471,-0.234348)">
                <circle cx="365" cy="86" r="7" style="fill:rgb(51,31,32);"/>
            </g>
        </g>
    </g>
</svg>
